<svg xmlns="http://www.w3.org/2000/svg" xml:space="preserve" id="Icons" width="800" height="800" fill="#fff" version="1.1" viewBox="0 0 32 32"><g id="SVGRepo_iconCarrier"><style>.st0{fill:none;stroke:#4586ff;stroke-width:2;stroke-linecap:round;stroke-linejoin:round;stroke-miterlimit:10}</style><path d="M27 7h0c-2.6-2.7-6.9-2.7-9.5 0l-1.3 1.4c-.1.1-.4.1-.5 0L14.4 7C11.8 4.3 7.6 4.3 5 7h0c-2.6 2.7-2.6 7.1 0 9.8l1.6 1.6 9.2 9.5c.1.1.4.1.5 0l9.2-9.5 1.6-1.6c2.6-2.7 2.6-7.1-.1-9.8z" class="st0"/><path d="M9 15h3l2-2 2 4 2-5 2 3h3" class="st0"/></g></svg>