<svg xmlns="http://www.w3.org/2000/svg" xml:space="preserve" id="Icons" width="800" height="800" fill="#4586FF" stroke="#4586FF" version="1.1" viewBox="0 0 32 32"><g id="SVGRepo_iconCarrier"><style>.st0{fill:none;stroke:#4586ff;stroke-width:2;stroke-linecap:round;stroke-linejoin:round;stroke-miterlimit:10}</style><path d="M16 2v.8c0 2.7.9 5.3 2.6 7.4h0v0c-.5 2.6-1.9 4.9-4.1 6.4l-.2.1h0c-1.5.8-3.2 1.1-5 .9l-1.2-.1c-1.4-.3-2.8.1-3.8 1.1h0c-.8.9-1.3 2.1-1.3 3.3V29" class="st0"/><path d="M20 2v.4C20 7 22 9 22 9h.9c3.4 0 6.1 2.7 6.1 6.1v0c0 1.9-.5 3.8-1.4 5.5h0c-2.2 3.9-6.6 6.4-11.9 5.8h0c-2.4-.2-4.7-1.1-6.5-2.6h0c-.9-.8-2.2-.2-2.2.9V29" class="st0"/></g></svg>