<svg xmlns="http://www.w3.org/2000/svg" xml:space="preserve" id="Icons" width="800" height="800" fill="#fff" version="1.1" viewBox="0 0 32 32"><g id="SVGRepo_iconCarrier"><style>.st0{fill:none;stroke:#4586ff;stroke-width:2;stroke-linecap:round;stroke-linejoin:round;stroke-miterlimit:10}</style><path d="M14 10h2l2-2 2 4 2-5 2 3M3 25l2.6-4.2c1.5-2.3 4-3.8 6.8-3.8H19v0c0 2.2-1.8 4-4 4h-2" class="st0"/><path d="M15 21h8l1.2-1.6c1.1-1.5 2.9-2.4 4.8-2.4h0l-2.7 4.8c-1.4 2.6-4.2 4.2-7.1 4.2h0c-4.7 0-9.3 1.4-13.2 4h0m10.1-13-4.4-4.7-1.2-1.3c-2-2.1-2-5.4 0-7.5h0c2-2.1 5.3-2.1 7.3 0l1 1c.1.1.3.1.4 0l1-1c2-2.1 5.3-2.1 7.3 0h0c2 2.1 2 5.4 0 7.5l-1.2 1.3-4.3 4.4-2.8 2.9" class="st0"/></g></svg>