<svg xmlns="http://www.w3.org/2000/svg" xml:space="preserve" id="Icons" width="800" height="800" fill="#000" version="1.1" viewBox="0 0 32 32"><g id="SVGRepo_iconCarrier"><style>.st0{fill:none;stroke:#4586ff;stroke-width:2;stroke-linecap:round;stroke-linejoin:round;stroke-miterlimit:10}</style><path d="M29 12.5c0-3-2.5-5.5-5.5-5.5H23v-.5C23 4.6 21.4 3 19.5 3S16 4.6 16 6.5v19c0 1.9 1.6 3.5 3.5 3.5 1.8 0 3.2-1.3 3.5-3 2.8-.2 5-2.6 5-5.5 0-1.4-.5-2.6-1.3-3.6 1.4-.9 2.3-2.6 2.3-4.4zm-26 0C3 9.5 5.5 7 8.5 7H9v-.5C9 4.6 10.6 3 12.5 3S16 4.6 16 6.5v19c0 1.9-1.6 3.5-3.5 3.5-1.8 0-3.2-1.3-3.5-3-2.8-.2-5-2.6-5-5.5 0-1.4.5-2.6 1.3-3.6C3.9 16 3 14.3 3 12.5z" class="st0"/><path d="M23 16c2.8 0 5 2.2 5 5M8.5 18c-3 0-5.5-2.5-5.5-5.5m7.2-3.3C9.5 8.5 9 7.6 9 6.5" class="st0"/></g></svg>