<svg xmlns="http://www.w3.org/2000/svg" xml:space="preserve" id="Icons" width="800" height="800" fill="#4586FF" version="1.1" viewBox="0 0 32 32"><g id="SVGRepo_iconCarrier"><style>.st0{fill:none;stroke:#4586ff;stroke-width:2;stroke-linecap:round;stroke-linejoin:round;stroke-miterlimit:10}</style><path d="M26.6 5.4h0c2 2 2 5.1 0 7.1L12.5 26.6c-2 2-5.1 2-7.1 0h0c-2-2-2-5.1 0-7.1L19.5 5.4c2-2 5.2-2 7.1 0z" class="st0"/><path stroke-width="2" d="m8.929 16 7.07-7.071L23.072 16 16 23.071z" class="st0"/><path d="m16 9-3.6-3.6c-2-2-5.1-2-7.1 0s-2 5.1 0 7.1L9 16m7 7 3.5 3.6c2 2 5.1 2 7.1 0s2-5.1 0-7.1L23 16m-6-2h0m-2 4h0" class="st0"/></g></svg>