<svg xmlns="http://www.w3.org/2000/svg" xml:space="preserve" width="800" height="800" fill="#4586FF" style="fill-rule:evenodd;clip-rule:evenodd;stroke-linejoin:round;stroke-miterlimit:2" viewBox="0 0 32 32"><path d="M16.816 23.395c-1.145 1.573-2.998 2.608-5.056 2.608a5.72 5.72 0 0 1-5.756-5.961 6.234 6.234 0 0 1 1.99-4.329c.192-.18.396-.348.609-.503a1 1 0 0 0-1.178-1.617 8.402 8.402 0 0 0-.798.661 8.23 8.23 0 0 0-2.622 5.718 7.707 7.707 0 0 0 7.755 8.031c2.714 0 5.162-1.356 6.673-3.431a1 1 0 0 0-1.617-1.177Z"/><path d="m10.246 10 2.801 10.257a1 1 0 0 0 .965.737h5.449l3.692 5.532a1.001 1.001 0 0 0 1.539.152l3.087-3.087a.999.999 0 1 0-1.414-1.414l-2.225 2.225-3.312-4.964a1 1 0 0 0-.832-.444h-5.221l-1.095-4.011h2.332a1 1 0 0 0 0-2h-2.878l-.951-3.479a3.001 3.001 0 1 0-4.669-2.492A3.002 3.002 0 0 0 10.246 10Zm.268-3.988a1 1 0 1 1 0 2 1 1 0 0 1 0-2Z"/></svg>